<mxfile host="app.diagrams.net" modified="2023-04-09T22:05:23.200Z" agent="Mozilla/5.0 (Windows NT 10.0; Win64; x64) AppleWebKit/537.36 (KHTML, like Gecko) Chrome/112.0.0.0 Safari/537.36 Edg/112.0.1722.34" etag="IDnLrNNELtsri4sENewJ" version="21.1.5" type="device">
  <diagram name="Pagina-1" id="0PF9rodISXWD6k8KoJyN">
    <mxGraphModel dx="1620" dy="2096" grid="1" gridSize="10" guides="1" tooltips="1" connect="1" arrows="1" fold="1" page="1" pageScale="1" pageWidth="827" pageHeight="1169" math="0" shadow="0">
      <root>
        <mxCell id="0" />
        <mxCell id="1" parent="0" />
        <mxCell id="aZluGWaW0WpS-Q8TLCgg-1" value="" style="ellipse;whiteSpace=wrap;html=1;aspect=fixed;" parent="1" vertex="1">
          <mxGeometry x="240" y="-60" width="80" height="80" as="geometry" />
        </mxCell>
        <mxCell id="aZluGWaW0WpS-Q8TLCgg-2" value="" style="ellipse;whiteSpace=wrap;html=1;aspect=fixed;" parent="1" vertex="1">
          <mxGeometry x="240" y="100" width="80" height="80" as="geometry" />
        </mxCell>
        <mxCell id="aZluGWaW0WpS-Q8TLCgg-3" value="" style="ellipse;whiteSpace=wrap;html=1;aspect=fixed;" parent="1" vertex="1">
          <mxGeometry x="240" y="260" width="80" height="80" as="geometry" />
        </mxCell>
        <mxCell id="aZluGWaW0WpS-Q8TLCgg-4" value="" style="rounded=0;whiteSpace=wrap;html=1;" parent="1" vertex="1">
          <mxGeometry x="240" y="220" width="80" height="10" as="geometry" />
        </mxCell>
        <mxCell id="aZluGWaW0WpS-Q8TLCgg-5" value="" style="rounded=0;whiteSpace=wrap;html=1;" parent="1" vertex="1">
          <mxGeometry x="240" y="50" width="80" height="10" as="geometry" />
        </mxCell>
        <mxCell id="aZluGWaW0WpS-Q8TLCgg-6" value="" style="endArrow=classic;html=1;rounded=0;exitX=0.5;exitY=1;exitDx=0;exitDy=0;entryX=0.5;entryY=0;entryDx=0;entryDy=0;" parent="1" source="aZluGWaW0WpS-Q8TLCgg-1" target="aZluGWaW0WpS-Q8TLCgg-5" edge="1">
          <mxGeometry width="50" height="50" relative="1" as="geometry">
            <mxPoint x="480" y="160" as="sourcePoint" />
            <mxPoint x="530" y="110" as="targetPoint" />
          </mxGeometry>
        </mxCell>
        <mxCell id="aZluGWaW0WpS-Q8TLCgg-7" value="" style="endArrow=classic;html=1;rounded=0;exitX=0.5;exitY=1;exitDx=0;exitDy=0;entryX=0.5;entryY=0;entryDx=0;entryDy=0;" parent="1" source="aZluGWaW0WpS-Q8TLCgg-5" target="aZluGWaW0WpS-Q8TLCgg-2" edge="1">
          <mxGeometry width="50" height="50" relative="1" as="geometry">
            <mxPoint x="480" y="160" as="sourcePoint" />
            <mxPoint x="530" y="110" as="targetPoint" />
          </mxGeometry>
        </mxCell>
        <mxCell id="aZluGWaW0WpS-Q8TLCgg-8" value="" style="endArrow=classic;html=1;rounded=0;exitX=0.5;exitY=1;exitDx=0;exitDy=0;entryX=0.5;entryY=0;entryDx=0;entryDy=0;" parent="1" source="aZluGWaW0WpS-Q8TLCgg-2" target="aZluGWaW0WpS-Q8TLCgg-4" edge="1">
          <mxGeometry width="50" height="50" relative="1" as="geometry">
            <mxPoint x="480" y="160" as="sourcePoint" />
            <mxPoint x="530" y="110" as="targetPoint" />
          </mxGeometry>
        </mxCell>
        <mxCell id="aZluGWaW0WpS-Q8TLCgg-9" value="" style="endArrow=classic;html=1;rounded=0;exitX=0.5;exitY=1;exitDx=0;exitDy=0;entryX=0.5;entryY=0;entryDx=0;entryDy=0;" parent="1" source="aZluGWaW0WpS-Q8TLCgg-4" target="aZluGWaW0WpS-Q8TLCgg-3" edge="1">
          <mxGeometry width="50" height="50" relative="1" as="geometry">
            <mxPoint x="350" y="310" as="sourcePoint" />
            <mxPoint x="400" y="260" as="targetPoint" />
          </mxGeometry>
        </mxCell>
        <mxCell id="aZluGWaW0WpS-Q8TLCgg-14" value="Start" style="text;html=1;strokeColor=none;fillColor=none;align=center;verticalAlign=middle;whiteSpace=wrap;rounded=0;" parent="1" vertex="1">
          <mxGeometry x="310" y="125" width="60" height="30" as="geometry" />
        </mxCell>
        <mxCell id="aZluGWaW0WpS-Q8TLCgg-16" value="startTime&lt;br&gt;=&lt;br&gt;systemTime" style="text;html=1;strokeColor=none;fillColor=none;align=center;verticalAlign=middle;whiteSpace=wrap;rounded=0;" parent="1" vertex="1">
          <mxGeometry x="330" y="285" width="60" height="30" as="geometry" />
        </mxCell>
        <mxCell id="aZluGWaW0WpS-Q8TLCgg-17" value="" style="ellipse;whiteSpace=wrap;html=1;aspect=fixed;" parent="1" vertex="1">
          <mxGeometry x="240" y="670" width="80" height="80" as="geometry" />
        </mxCell>
        <mxCell id="aZluGWaW0WpS-Q8TLCgg-18" value="" style="rounded=0;whiteSpace=wrap;html=1;" parent="1" vertex="1">
          <mxGeometry x="260" y="420" width="80" height="10" as="geometry" />
        </mxCell>
        <mxCell id="aZluGWaW0WpS-Q8TLCgg-19" value="" style="endArrow=classic;html=1;rounded=0;entryX=0.25;entryY=0;entryDx=0;entryDy=0;exitX=0.5;exitY=1;exitDx=0;exitDy=0;" parent="1" source="aZluGWaW0WpS-Q8TLCgg-3" target="aZluGWaW0WpS-Q8TLCgg-18" edge="1">
          <mxGeometry width="50" height="50" relative="1" as="geometry">
            <mxPoint x="320" y="350" as="sourcePoint" />
            <mxPoint x="530" y="320" as="targetPoint" />
          </mxGeometry>
        </mxCell>
        <mxCell id="aZluGWaW0WpS-Q8TLCgg-21" value="Read state" style="text;html=1;strokeColor=none;fillColor=none;align=center;verticalAlign=middle;whiteSpace=wrap;rounded=0;" parent="1" vertex="1">
          <mxGeometry x="330" y="485" width="60" height="30" as="geometry" />
        </mxCell>
        <mxCell id="aZluGWaW0WpS-Q8TLCgg-22" value="" style="endArrow=classic;html=1;rounded=0;exitX=0.5;exitY=1;exitDx=0;exitDy=0;entryX=0.5;entryY=0;entryDx=0;entryDy=0;" parent="1" source="aZluGWaW0WpS-Q8TLCgg-17" edge="1">
          <mxGeometry width="50" height="50" relative="1" as="geometry">
            <mxPoint x="280" y="760" as="sourcePoint" />
            <mxPoint x="200" y="800" as="targetPoint" />
          </mxGeometry>
        </mxCell>
        <mxCell id="aZluGWaW0WpS-Q8TLCgg-23" value="State&lt;br&gt;==&lt;br&gt;Start" style="text;html=1;strokeColor=none;fillColor=none;align=center;verticalAlign=middle;whiteSpace=wrap;rounded=0;" parent="1" vertex="1">
          <mxGeometry x="180" y="750" width="60" height="30" as="geometry" />
        </mxCell>
        <mxCell id="aZluGWaW0WpS-Q8TLCgg-24" value="" style="ellipse;whiteSpace=wrap;html=1;aspect=fixed;" parent="1" vertex="1">
          <mxGeometry x="320" y="840" width="80" height="80" as="geometry" />
        </mxCell>
        <mxCell id="aZluGWaW0WpS-Q8TLCgg-25" value="" style="rounded=0;whiteSpace=wrap;html=1;" parent="1" vertex="1">
          <mxGeometry x="320" y="800" width="80" height="10" as="geometry" />
        </mxCell>
        <mxCell id="aZluGWaW0WpS-Q8TLCgg-26" value="" style="endArrow=classic;html=1;rounded=0;exitX=0.5;exitY=1;exitDx=0;exitDy=0;entryX=0.5;entryY=0;entryDx=0;entryDy=0;" parent="1" source="aZluGWaW0WpS-Q8TLCgg-17" target="aZluGWaW0WpS-Q8TLCgg-25" edge="1">
          <mxGeometry width="50" height="50" relative="1" as="geometry">
            <mxPoint x="400" y="760" as="sourcePoint" />
            <mxPoint x="670" y="720" as="targetPoint" />
          </mxGeometry>
        </mxCell>
        <mxCell id="aZluGWaW0WpS-Q8TLCgg-27" value="" style="endArrow=classic;html=1;rounded=0;exitX=0.5;exitY=1;exitDx=0;exitDy=0;entryX=0.5;entryY=0;entryDx=0;entryDy=0;" parent="1" source="aZluGWaW0WpS-Q8TLCgg-25" target="aZluGWaW0WpS-Q8TLCgg-24" edge="1">
          <mxGeometry width="50" height="50" relative="1" as="geometry">
            <mxPoint x="450" y="920" as="sourcePoint" />
            <mxPoint x="500" y="870" as="targetPoint" />
          </mxGeometry>
        </mxCell>
        <mxCell id="aZluGWaW0WpS-Q8TLCgg-28" value="State&lt;br&gt;==&lt;br&gt;Stop" style="text;html=1;strokeColor=none;fillColor=none;align=center;verticalAlign=middle;whiteSpace=wrap;rounded=0;" parent="1" vertex="1">
          <mxGeometry x="320" y="750" width="60" height="30" as="geometry" />
        </mxCell>
        <mxCell id="aZluGWaW0WpS-Q8TLCgg-29" value="" style="ellipse;whiteSpace=wrap;html=1;aspect=fixed;" parent="1" vertex="1">
          <mxGeometry x="180" y="1200" width="80" height="80" as="geometry" />
        </mxCell>
        <mxCell id="aZluGWaW0WpS-Q8TLCgg-30" value="" style="rounded=0;whiteSpace=wrap;html=1;" parent="1" vertex="1">
          <mxGeometry x="160" y="800" width="80" height="10" as="geometry" />
        </mxCell>
        <mxCell id="aZluGWaW0WpS-Q8TLCgg-31" value="invoke&lt;br&gt;And&lt;br&gt;Wait" style="text;html=1;strokeColor=none;fillColor=none;align=center;verticalAlign=middle;whiteSpace=wrap;rounded=0;" parent="1" vertex="1">
          <mxGeometry x="230" y="865" width="60" height="30" as="geometry" />
        </mxCell>
        <mxCell id="aZluGWaW0WpS-Q8TLCgg-32" value="" style="ellipse;whiteSpace=wrap;html=1;aspect=fixed;" parent="1" vertex="1">
          <mxGeometry x="180" y="1400" width="80" height="80" as="geometry" />
        </mxCell>
        <mxCell id="aZluGWaW0WpS-Q8TLCgg-33" value="" style="rounded=0;whiteSpace=wrap;html=1;" parent="1" vertex="1">
          <mxGeometry x="180" y="1360" width="80" height="10" as="geometry" />
        </mxCell>
        <mxCell id="aZluGWaW0WpS-Q8TLCgg-34" value="sleep(&lt;br&gt;targetTimeDifference&lt;br&gt;--&lt;br&gt;timeDifference)" style="text;html=1;strokeColor=none;fillColor=none;align=center;verticalAlign=middle;whiteSpace=wrap;rounded=0;" parent="1" vertex="1">
          <mxGeometry x="290" y="1425" width="60" height="30" as="geometry" />
        </mxCell>
        <mxCell id="aZluGWaW0WpS-Q8TLCgg-35" value="timeDifference&lt;br&gt;&amp;lt;&lt;br&gt;targetTimeDifference" style="text;html=1;strokeColor=none;fillColor=none;align=center;verticalAlign=middle;whiteSpace=wrap;rounded=0;" parent="1" vertex="1">
          <mxGeometry x="250" y="1300" width="60" height="30" as="geometry" />
        </mxCell>
        <mxCell id="aZluGWaW0WpS-Q8TLCgg-36" value="" style="endArrow=classic;html=1;rounded=0;exitX=0;exitY=0.5;exitDx=0;exitDy=0;entryX=0.75;entryY=1;entryDx=0;entryDy=0;" parent="1" source="aZluGWaW0WpS-Q8TLCgg-29" target="aZluGWaW0WpS-Q8TLCgg-37" edge="1">
          <mxGeometry width="50" height="50" relative="1" as="geometry">
            <mxPoint x="350" y="700" as="sourcePoint" />
            <mxPoint x="400" y="650" as="targetPoint" />
            <Array as="points">
              <mxPoint x="60" y="1240" />
              <mxPoint x="60" y="880" />
            </Array>
          </mxGeometry>
        </mxCell>
        <mxCell id="aZluGWaW0WpS-Q8TLCgg-37" value="" style="rounded=0;whiteSpace=wrap;html=1;" parent="1" vertex="1">
          <mxGeometry y="680" width="80" height="10" as="geometry" />
        </mxCell>
        <mxCell id="aZluGWaW0WpS-Q8TLCgg-38" value="" style="endArrow=classic;html=1;rounded=0;exitX=0.5;exitY=0;exitDx=0;exitDy=0;entryX=0;entryY=0.5;entryDx=0;entryDy=0;" parent="1" source="aZluGWaW0WpS-Q8TLCgg-37" target="aZluGWaW0WpS-Q8TLCgg-3" edge="1">
          <mxGeometry width="50" height="50" relative="1" as="geometry">
            <mxPoint x="300" y="700" as="sourcePoint" />
            <mxPoint x="150" y="390" as="targetPoint" />
            <Array as="points">
              <mxPoint x="40" y="300" />
            </Array>
          </mxGeometry>
        </mxCell>
        <mxCell id="aZluGWaW0WpS-Q8TLCgg-39" value="timeDifference&lt;br&gt;&amp;gt; targetTimeDifference" style="text;html=1;strokeColor=none;fillColor=none;align=center;verticalAlign=middle;whiteSpace=wrap;rounded=0;" parent="1" vertex="1">
          <mxGeometry x="90" y="1200" width="60" height="30" as="geometry" />
        </mxCell>
        <mxCell id="aZluGWaW0WpS-Q8TLCgg-40" value="" style="endArrow=classic;html=1;rounded=0;exitX=0;exitY=0.5;exitDx=0;exitDy=0;entryX=0.25;entryY=1;entryDx=0;entryDy=0;" parent="1" source="aZluGWaW0WpS-Q8TLCgg-32" target="aZluGWaW0WpS-Q8TLCgg-37" edge="1">
          <mxGeometry width="50" height="50" relative="1" as="geometry">
            <mxPoint x="340" y="1080" as="sourcePoint" />
            <mxPoint x="10" y="1240" as="targetPoint" />
            <Array as="points">
              <mxPoint x="20" y="1440" />
              <mxPoint x="20" y="1080" />
            </Array>
          </mxGeometry>
        </mxCell>
        <mxCell id="aZluGWaW0WpS-Q8TLCgg-41" value="While(true)" style="text;html=1;strokeColor=none;fillColor=none;align=center;verticalAlign=middle;whiteSpace=wrap;rounded=0;" parent="1" vertex="1">
          <mxGeometry x="90" y="670" width="60" height="30" as="geometry" />
        </mxCell>
        <mxCell id="aZluGWaW0WpS-Q8TLCgg-43" value="Return" style="text;html=1;strokeColor=none;fillColor=none;align=center;verticalAlign=middle;whiteSpace=wrap;rounded=0;" parent="1" vertex="1">
          <mxGeometry x="410" y="865" width="60" height="30" as="geometry" />
        </mxCell>
        <mxCell id="aZluGWaW0WpS-Q8TLCgg-44" value="Init" style="text;html=1;strokeColor=none;fillColor=none;align=center;verticalAlign=middle;whiteSpace=wrap;rounded=0;" parent="1" vertex="1">
          <mxGeometry x="310" y="-35" width="60" height="30" as="geometry" />
        </mxCell>
        <mxCell id="aZluGWaW0WpS-Q8TLCgg-45" value="" style="ellipse;whiteSpace=wrap;html=1;aspect=fixed;fillColor=#000000;" parent="1" vertex="1">
          <mxGeometry x="270" y="-30" width="20" height="20" as="geometry" />
        </mxCell>
        <mxCell id="aZluGWaW0WpS-Q8TLCgg-47" value="" style="ellipse;shape=cloud;whiteSpace=wrap;html=1;" parent="1" vertex="1">
          <mxGeometry x="545" y="220" width="170" height="120" as="geometry" />
        </mxCell>
        <mxCell id="aZluGWaW0WpS-Q8TLCgg-48" value="Threads" style="text;html=1;strokeColor=none;fillColor=none;align=center;verticalAlign=middle;whiteSpace=wrap;rounded=0;" parent="1" vertex="1">
          <mxGeometry x="605" y="265" width="60" height="30" as="geometry" />
        </mxCell>
        <mxCell id="aZluGWaW0WpS-Q8TLCgg-54" value="" style="endArrow=classic;html=1;rounded=0;exitX=0.5;exitY=1;exitDx=0;exitDy=0;entryX=0.5;entryY=0;entryDx=0;entryDy=0;" parent="1" source="aZluGWaW0WpS-Q8TLCgg-30" target="aZluGWaW0WpS-Q8TLCgg-55" edge="1">
          <mxGeometry width="50" height="50" relative="1" as="geometry">
            <mxPoint x="200" y="810" as="sourcePoint" />
            <mxPoint x="200" y="1000" as="targetPoint" />
          </mxGeometry>
        </mxCell>
        <mxCell id="aZluGWaW0WpS-Q8TLCgg-55" value="" style="ellipse;whiteSpace=wrap;html=1;aspect=fixed;" parent="1" vertex="1">
          <mxGeometry x="160" y="840" width="80" height="80" as="geometry" />
        </mxCell>
        <mxCell id="aZluGWaW0WpS-Q8TLCgg-56" value="" style="ellipse;whiteSpace=wrap;html=1;aspect=fixed;" parent="1" vertex="1">
          <mxGeometry x="585" y="840" width="80" height="80" as="geometry" />
        </mxCell>
        <mxCell id="aZluGWaW0WpS-Q8TLCgg-57" value="" style="rounded=0;whiteSpace=wrap;html=1;" parent="1" vertex="1">
          <mxGeometry x="180" y="1000" width="80" height="10" as="geometry" />
        </mxCell>
        <mxCell id="aZluGWaW0WpS-Q8TLCgg-58" value="" style="endArrow=classic;html=1;rounded=0;entryX=0.75;entryY=0;entryDx=0;entryDy=0;exitX=0.5;exitY=1;exitDx=0;exitDy=0;" parent="1" source="aZluGWaW0WpS-Q8TLCgg-56" target="aZluGWaW0WpS-Q8TLCgg-57" edge="1">
          <mxGeometry width="50" height="50" relative="1" as="geometry">
            <mxPoint x="620" y="1120" as="sourcePoint" />
            <mxPoint x="610" y="1040" as="targetPoint" />
            <Array as="points">
              <mxPoint x="625" y="960" />
              <mxPoint x="240" y="960" />
              <mxPoint x="240" y="1000" />
            </Array>
          </mxGeometry>
        </mxCell>
        <mxCell id="aZluGWaW0WpS-Q8TLCgg-59" value="" style="endArrow=classic;html=1;rounded=0;exitX=0.5;exitY=1;exitDx=0;exitDy=0;" parent="1" source="aZluGWaW0WpS-Q8TLCgg-57" edge="1">
          <mxGeometry width="50" height="50" relative="1" as="geometry">
            <mxPoint x="450" y="1201" as="sourcePoint" />
            <mxPoint x="220" y="1040" as="targetPoint" />
          </mxGeometry>
        </mxCell>
        <mxCell id="aZluGWaW0WpS-Q8TLCgg-60" value="" style="ellipse;shape=cloud;whiteSpace=wrap;html=1;" parent="1" vertex="1">
          <mxGeometry x="535" y="650" width="170" height="120" as="geometry" />
        </mxCell>
        <mxCell id="aZluGWaW0WpS-Q8TLCgg-61" value="Event&lt;br&gt;Dispatch&lt;br&gt;Thread" style="text;html=1;strokeColor=none;fillColor=none;align=center;verticalAlign=middle;whiteSpace=wrap;rounded=0;" parent="1" vertex="1">
          <mxGeometry x="590" y="695" width="60" height="30" as="geometry" />
        </mxCell>
        <mxCell id="aZluGWaW0WpS-Q8TLCgg-62" value="" style="rounded=0;whiteSpace=wrap;html=1;" parent="1" vertex="1">
          <mxGeometry x="585" y="800" width="80" height="10" as="geometry" />
        </mxCell>
        <mxCell id="aZluGWaW0WpS-Q8TLCgg-63" value="" style="endArrow=classic;html=1;rounded=0;exitX=0.529;exitY=0.956;exitDx=0;exitDy=0;entryX=0.5;entryY=0;entryDx=0;entryDy=0;exitPerimeter=0;" parent="1" source="aZluGWaW0WpS-Q8TLCgg-60" target="aZluGWaW0WpS-Q8TLCgg-62" edge="1">
          <mxGeometry width="50" height="50" relative="1" as="geometry">
            <mxPoint x="619.71" y="755" as="sourcePoint" />
            <mxPoint x="619.71" y="790" as="targetPoint" />
          </mxGeometry>
        </mxCell>
        <mxCell id="aZluGWaW0WpS-Q8TLCgg-64" value="" style="endArrow=classic;html=1;rounded=0;exitX=0.5;exitY=1;exitDx=0;exitDy=0;entryX=0.5;entryY=0;entryDx=0;entryDy=0;" parent="1" source="aZluGWaW0WpS-Q8TLCgg-62" target="aZluGWaW0WpS-Q8TLCgg-56" edge="1">
          <mxGeometry width="50" height="50" relative="1" as="geometry">
            <mxPoint x="715" y="915" as="sourcePoint" />
            <mxPoint x="625" y="835" as="targetPoint" />
          </mxGeometry>
        </mxCell>
        <mxCell id="aZluGWaW0WpS-Q8TLCgg-65" value="Update&amp;nbsp;&lt;br&gt;GUI" style="text;html=1;strokeColor=none;fillColor=none;align=center;verticalAlign=middle;whiteSpace=wrap;rounded=0;" parent="1" vertex="1">
          <mxGeometry x="665" y="865" width="60" height="30" as="geometry" />
        </mxCell>
        <mxCell id="aZluGWaW0WpS-Q8TLCgg-67" value="" style="endArrow=classic;html=1;rounded=0;entryX=0.5;entryY=0;entryDx=0;entryDy=0;exitX=0.5;exitY=1;exitDx=0;exitDy=0;" parent="1" source="aZluGWaW0WpS-Q8TLCgg-29" target="aZluGWaW0WpS-Q8TLCgg-33" edge="1">
          <mxGeometry width="50" height="50" relative="1" as="geometry">
            <mxPoint x="200" y="1310" as="sourcePoint" />
            <mxPoint x="270" y="1210" as="targetPoint" />
          </mxGeometry>
        </mxCell>
        <mxCell id="aZluGWaW0WpS-Q8TLCgg-68" value="" style="endArrow=classic;html=1;rounded=0;entryX=0.5;entryY=0;entryDx=0;entryDy=0;exitX=0.5;exitY=1;exitDx=0;exitDy=0;" parent="1" source="aZluGWaW0WpS-Q8TLCgg-33" target="aZluGWaW0WpS-Q8TLCgg-32" edge="1">
          <mxGeometry width="50" height="50" relative="1" as="geometry">
            <mxPoint x="300" y="1450" as="sourcePoint" />
            <mxPoint x="350" y="1400" as="targetPoint" />
          </mxGeometry>
        </mxCell>
        <mxCell id="aZluGWaW0WpS-Q8TLCgg-69" value="" style="endArrow=classic;html=1;rounded=0;exitX=0.5;exitY=1;exitDx=0;exitDy=0;entryX=0.25;entryY=0;entryDx=0;entryDy=0;" parent="1" source="aZluGWaW0WpS-Q8TLCgg-55" target="aZluGWaW0WpS-Q8TLCgg-57" edge="1">
          <mxGeometry width="50" height="50" relative="1" as="geometry">
            <mxPoint x="230" y="990" as="sourcePoint" />
            <mxPoint x="280" y="940" as="targetPoint" />
          </mxGeometry>
        </mxCell>
        <mxCell id="aZluGWaW0WpS-Q8TLCgg-70" value="&lt;h1&gt;Observer-Petri&lt;/h1&gt;" style="text;html=1;strokeColor=none;fillColor=none;spacing=5;spacingTop=-20;whiteSpace=wrap;overflow=hidden;rounded=0;" parent="1" vertex="1">
          <mxGeometry x="10" y="-50" width="190" height="120" as="geometry" />
        </mxCell>
        <mxCell id="aZluGWaW0WpS-Q8TLCgg-71" value="" style="ellipse;whiteSpace=wrap;html=1;aspect=fixed;" parent="1" vertex="1">
          <mxGeometry x="180" y="1040" width="80" height="80" as="geometry" />
        </mxCell>
        <mxCell id="aZluGWaW0WpS-Q8TLCgg-72" value="" style="rounded=0;whiteSpace=wrap;html=1;" parent="1" vertex="1">
          <mxGeometry x="180" y="1160" width="80" height="10" as="geometry" />
        </mxCell>
        <mxCell id="aZluGWaW0WpS-Q8TLCgg-73" value="" style="endArrow=classic;html=1;rounded=0;exitX=0.5;exitY=1;exitDx=0;exitDy=0;entryX=0.5;entryY=0;entryDx=0;entryDy=0;" parent="1" source="aZluGWaW0WpS-Q8TLCgg-71" target="aZluGWaW0WpS-Q8TLCgg-72" edge="1">
          <mxGeometry width="50" height="50" relative="1" as="geometry">
            <mxPoint x="440" y="1130" as="sourcePoint" />
            <mxPoint x="490" y="1080" as="targetPoint" />
          </mxGeometry>
        </mxCell>
        <mxCell id="aZluGWaW0WpS-Q8TLCgg-74" value="timeDifference&lt;br&gt;=&lt;br&gt;SystemTime&lt;br&gt;- &lt;br&gt;startTime" style="text;html=1;strokeColor=none;fillColor=none;align=center;verticalAlign=middle;whiteSpace=wrap;rounded=0;" parent="1" vertex="1">
          <mxGeometry x="270" y="1065" width="60" height="30" as="geometry" />
        </mxCell>
        <mxCell id="aZluGWaW0WpS-Q8TLCgg-75" value="" style="endArrow=classic;html=1;rounded=0;exitX=0.5;exitY=1;exitDx=0;exitDy=0;" parent="1" source="aZluGWaW0WpS-Q8TLCgg-72" target="aZluGWaW0WpS-Q8TLCgg-29" edge="1">
          <mxGeometry width="50" height="50" relative="1" as="geometry">
            <mxPoint x="240" y="1240" as="sourcePoint" />
            <mxPoint x="290" y="1190" as="targetPoint" />
          </mxGeometry>
        </mxCell>
        <mxCell id="aZluGWaW0WpS-Q8TLCgg-76" value="If" style="text;html=1;strokeColor=none;fillColor=none;align=center;verticalAlign=middle;whiteSpace=wrap;rounded=0;" parent="1" vertex="1">
          <mxGeometry x="240" y="1225" width="60" height="30" as="geometry" />
        </mxCell>
        <mxCell id="aZluGWaW0WpS-Q8TLCgg-77" value="If" style="text;html=1;strokeColor=none;fillColor=none;align=center;verticalAlign=middle;whiteSpace=wrap;rounded=0;" parent="1" vertex="1">
          <mxGeometry x="310" y="695" width="60" height="30" as="geometry" />
        </mxCell>
        <mxCell id="aZluGWaW0WpS-Q8TLCgg-78" value="" style="ellipse;whiteSpace=wrap;html=1;aspect=fixed;" parent="1" vertex="1">
          <mxGeometry x="260" y="460" width="80" height="80" as="geometry" />
        </mxCell>
        <mxCell id="aZluGWaW0WpS-Q8TLCgg-79" value="" style="endArrow=classic;html=1;rounded=0;exitX=0.5;exitY=1;exitDx=0;exitDy=0;" parent="1" source="aZluGWaW0WpS-Q8TLCgg-18" target="aZluGWaW0WpS-Q8TLCgg-78" edge="1">
          <mxGeometry width="50" height="50" relative="1" as="geometry">
            <mxPoint x="350" y="460" as="sourcePoint" />
            <mxPoint x="400" y="410" as="targetPoint" />
          </mxGeometry>
        </mxCell>
        <mxCell id="aZluGWaW0WpS-Q8TLCgg-80" value="" style="ellipse;whiteSpace=wrap;html=1;aspect=fixed;" parent="1" vertex="1">
          <mxGeometry x="420" y="460" width="80" height="80" as="geometry" />
        </mxCell>
        <mxCell id="aZluGWaW0WpS-Q8TLCgg-81" value="" style="endArrow=classic;html=1;rounded=0;exitX=0.25;exitY=0.065;exitDx=0;exitDy=0;entryX=0.75;entryY=0;entryDx=0;entryDy=0;exitPerimeter=0;" parent="1" source="aZluGWaW0WpS-Q8TLCgg-80" target="aZluGWaW0WpS-Q8TLCgg-18" edge="1">
          <mxGeometry width="50" height="50" relative="1" as="geometry">
            <mxPoint x="350" y="460" as="sourcePoint" />
            <mxPoint x="440" y="380" as="targetPoint" />
            <Array as="points">
              <mxPoint x="440" y="380" />
              <mxPoint x="320" y="380" />
            </Array>
          </mxGeometry>
        </mxCell>
        <mxCell id="aZluGWaW0WpS-Q8TLCgg-83" value="" style="ellipse;whiteSpace=wrap;html=1;aspect=fixed;fillColor=#000000;" parent="1" vertex="1">
          <mxGeometry x="450" y="490" width="20" height="20" as="geometry" />
        </mxCell>
        <mxCell id="aZluGWaW0WpS-Q8TLCgg-84" value="" style="rounded=0;whiteSpace=wrap;html=1;" parent="1" vertex="1">
          <mxGeometry x="575" y="420" width="80" height="10" as="geometry" />
        </mxCell>
        <mxCell id="aZluGWaW0WpS-Q8TLCgg-85" value="" style="ellipse;whiteSpace=wrap;html=1;aspect=fixed;" parent="1" vertex="1">
          <mxGeometry x="575" y="460" width="80" height="80" as="geometry" />
        </mxCell>
        <mxCell id="aZluGWaW0WpS-Q8TLCgg-86" value="" style="endArrow=classic;html=1;rounded=0;exitX=0.5;exitY=1;exitDx=0;exitDy=0;" parent="1" source="aZluGWaW0WpS-Q8TLCgg-84" target="aZluGWaW0WpS-Q8TLCgg-85" edge="1">
          <mxGeometry width="50" height="50" relative="1" as="geometry">
            <mxPoint x="670" y="460" as="sourcePoint" />
            <mxPoint x="720" y="410" as="targetPoint" />
          </mxGeometry>
        </mxCell>
        <mxCell id="aZluGWaW0WpS-Q8TLCgg-87" value="" style="endArrow=classic;html=1;rounded=0;entryX=0.25;entryY=0;entryDx=0;entryDy=0;exitX=0.759;exitY=0.07;exitDx=0;exitDy=0;exitPerimeter=0;" parent="1" source="aZluGWaW0WpS-Q8TLCgg-80" target="aZluGWaW0WpS-Q8TLCgg-84" edge="1">
          <mxGeometry width="50" height="50" relative="1" as="geometry">
            <mxPoint x="500" y="450" as="sourcePoint" />
            <mxPoint x="580" y="380" as="targetPoint" />
            <Array as="points">
              <mxPoint x="480" y="380" />
              <mxPoint x="595" y="380" />
            </Array>
          </mxGeometry>
        </mxCell>
        <mxCell id="aZluGWaW0WpS-Q8TLCgg-88" value="" style="endArrow=classic;html=1;rounded=0;entryX=0.796;entryY=-0.106;entryDx=0;entryDy=0;entryPerimeter=0;exitX=0.55;exitY=0.95;exitDx=0;exitDy=0;exitPerimeter=0;" parent="1" source="aZluGWaW0WpS-Q8TLCgg-47" target="aZluGWaW0WpS-Q8TLCgg-84" edge="1">
          <mxGeometry width="50" height="50" relative="1" as="geometry">
            <mxPoint x="530" y="430" as="sourcePoint" />
            <mxPoint x="580" y="380" as="targetPoint" />
          </mxGeometry>
        </mxCell>
        <mxCell id="aZluGWaW0WpS-Q8TLCgg-89" value="Change&lt;br&gt;state" style="text;html=1;strokeColor=none;fillColor=none;align=center;verticalAlign=middle;whiteSpace=wrap;rounded=0;" parent="1" vertex="1">
          <mxGeometry x="655" y="485" width="60" height="30" as="geometry" />
        </mxCell>
        <mxCell id="aZluGWaW0WpS-Q8TLCgg-90" value="" style="rounded=0;whiteSpace=wrap;html=1;" parent="1" vertex="1">
          <mxGeometry x="260" y="580" width="80" height="10" as="geometry" />
        </mxCell>
        <mxCell id="aZluGWaW0WpS-Q8TLCgg-91" value="" style="endArrow=classic;html=1;rounded=0;exitX=0.5;exitY=1;exitDx=0;exitDy=0;entryX=0.5;entryY=0;entryDx=0;entryDy=0;" parent="1" source="aZluGWaW0WpS-Q8TLCgg-78" target="aZluGWaW0WpS-Q8TLCgg-90" edge="1">
          <mxGeometry width="50" height="50" relative="1" as="geometry">
            <mxPoint x="480" y="580" as="sourcePoint" />
            <mxPoint x="530" y="530" as="targetPoint" />
          </mxGeometry>
        </mxCell>
        <mxCell id="aZluGWaW0WpS-Q8TLCgg-92" value="" style="endArrow=classic;html=1;rounded=0;exitX=0.75;exitY=1;exitDx=0;exitDy=0;entryX=0.247;entryY=0.934;entryDx=0;entryDy=0;entryPerimeter=0;" parent="1" source="aZluGWaW0WpS-Q8TLCgg-90" target="aZluGWaW0WpS-Q8TLCgg-80" edge="1">
          <mxGeometry width="50" height="50" relative="1" as="geometry">
            <mxPoint x="300" y="600" as="sourcePoint" />
            <mxPoint x="480" y="580" as="targetPoint" />
            <Array as="points">
              <mxPoint x="320" y="620" />
              <mxPoint x="440" y="620" />
            </Array>
          </mxGeometry>
        </mxCell>
        <mxCell id="aZluGWaW0WpS-Q8TLCgg-93" value="" style="endArrow=classic;html=1;rounded=0;exitX=0.25;exitY=1;exitDx=0;exitDy=0;entryX=0.5;entryY=0;entryDx=0;entryDy=0;" parent="1" source="aZluGWaW0WpS-Q8TLCgg-90" target="aZluGWaW0WpS-Q8TLCgg-17" edge="1">
          <mxGeometry width="50" height="50" relative="1" as="geometry">
            <mxPoint x="390" y="590" as="sourcePoint" />
            <mxPoint x="440" y="540" as="targetPoint" />
          </mxGeometry>
        </mxCell>
        <mxCell id="aZluGWaW0WpS-Q8TLCgg-95" value="" style="rounded=0;whiteSpace=wrap;html=1;" parent="1" vertex="1">
          <mxGeometry x="575" y="580" width="80" height="10" as="geometry" />
        </mxCell>
        <mxCell id="aZluGWaW0WpS-Q8TLCgg-96" value="" style="endArrow=classic;html=1;rounded=0;exitX=0.5;exitY=1;exitDx=0;exitDy=0;entryX=0.5;entryY=0;entryDx=0;entryDy=0;" parent="1" source="aZluGWaW0WpS-Q8TLCgg-85" target="aZluGWaW0WpS-Q8TLCgg-95" edge="1">
          <mxGeometry width="50" height="50" relative="1" as="geometry">
            <mxPoint x="280" y="530" as="sourcePoint" />
            <mxPoint x="330" y="480" as="targetPoint" />
          </mxGeometry>
        </mxCell>
        <mxCell id="aZluGWaW0WpS-Q8TLCgg-99" value="" style="endArrow=classic;html=1;rounded=0;exitX=0.25;exitY=1;exitDx=0;exitDy=0;entryX=0.753;entryY=0.934;entryDx=0;entryDy=0;entryPerimeter=0;" parent="1" source="aZluGWaW0WpS-Q8TLCgg-95" target="aZluGWaW0WpS-Q8TLCgg-80" edge="1">
          <mxGeometry width="50" height="50" relative="1" as="geometry">
            <mxPoint x="560" y="620" as="sourcePoint" />
            <mxPoint x="480" y="550" as="targetPoint" />
            <Array as="points">
              <mxPoint x="595" y="620" />
              <mxPoint x="480" y="620" />
            </Array>
          </mxGeometry>
        </mxCell>
        <mxCell id="aZluGWaW0WpS-Q8TLCgg-100" value="" style="endArrow=classic;html=1;rounded=0;exitX=0.75;exitY=1;exitDx=0;exitDy=0;entryX=0.875;entryY=0.5;entryDx=0;entryDy=0;entryPerimeter=0;" parent="1" source="aZluGWaW0WpS-Q8TLCgg-95" target="aZluGWaW0WpS-Q8TLCgg-47" edge="1">
          <mxGeometry width="50" height="50" relative="1" as="geometry">
            <mxPoint x="660" y="610" as="sourcePoint" />
            <mxPoint x="710" y="560" as="targetPoint" />
            <Array as="points">
              <mxPoint x="635" y="620" />
              <mxPoint x="760" y="620" />
              <mxPoint x="760" y="280" />
            </Array>
          </mxGeometry>
        </mxCell>
        <mxCell id="aZluGWaW0WpS-Q8TLCgg-102" value="Lock" style="text;html=1;strokeColor=none;fillColor=none;align=center;verticalAlign=middle;whiteSpace=wrap;rounded=0;" parent="1" vertex="1">
          <mxGeometry x="490" y="485" width="60" height="30" as="geometry" />
        </mxCell>
      </root>
    </mxGraphModel>
  </diagram>
</mxfile>
